<?xml version="1.0" encoding="UTF-8"?>
<!-- Created with Inkscape (http://www.inkscape.org/) -->
<svg width="2328.2" height="822.56" version="1.1" viewBox="0 0 2328.2 822.56" xml:space="preserve" xmlns="http://www.w3.org/2000/svg" xmlns:cc="http://creativecommons.org/ns#" xmlns:dc="http://purl.org/dc/elements/1.1/" xmlns:rdf="http://www.w3.org/1999/02/22-rdf-syntax-ns#"><metadata><rdf:RDF><cc:Work rdf:about=""><dc:format>image/svg+xml</dc:format><dc:type rdf:resource="http://purl.org/dc/dcmitype/StillImage"/><dc:title/></cc:Work></rdf:RDF></metadata><defs><clipPath id="clipPath26"><path d="m0 640h1920v-640h-1920z"/></clipPath></defs><g transform="matrix(1.3333 0 0 -1.3333 -115.92 837.83)"><g transform="translate(703.86 319.91)"><path d="m0 0-308.46-308.46-308.46 308.46 308.46 308.46z" fill="#010202"/></g><g transform="translate(421.26 545.54)"><path d="m0 0-25.537-25.523-25.567 25.523 25.567 25.552z" fill="#fff"/></g><g clip-path="url(#clipPath26)"><g transform="translate(381.55 484.02)"><path d="m0 0h28.73l-0.07-306.62c0-18.477-1.898-32.147-5.668-40.992-3.797-8.844-9.871-15.932-18.308-21.248-8.411-5.274-18.563-7.946-30.418-7.946-1.829 0-4.936 0.282-9.352 0.858l-5.301 26.705h7.326c8.227 0 14.527 0.984 18.858 3.023 4.359 1.969 7.805 5.514 10.35 10.576 2.532 5.104 3.797 15.862 3.797 32.315z" fill="#fff"/></g><g transform="translate(280.34 460.42)"><path d="m0 0 201.64-211.23v200.26h28.799v-270.2l-201.63 210.85v-199.22h-28.813z" fill="#fff"/></g><g transform="translate(814.83 498.02)"><path d="m0 0v-86.216c0-26.098-5.04-52.378-36.719-52.378-7.92 0-14.579 1.98-21.239 5.94l8.46 14.4c3.779-2.881 8.64-4.5 13.499-4.5 19.439 0 19.079 22.679 19.079 36.538v86.216z" fill="#1e1f1d"/></g><g transform="translate(982.94 430.16)"><path d="m0 0c0 29.878-22.318 54.897-54.178 54.897-31.858 0-54.177-25.019-54.177-54.897 0-30.959 24.838-54.897 54.177-54.897s54.178 23.938 54.178 54.897m16.92 0c0-40.318-31.859-70.737-71.098-70.737-39.238 0-71.096 30.419-71.096 70.737 0 38.878 32.218 70.737 71.096 70.737 38.879 0 71.098-31.859 71.098-70.737" fill="#1e1f1d"/></g><g transform="translate(1160.8 430.16)"><path d="m0 0c0 29.878-22.318 54.897-54.178 54.897-31.858 0-54.177-25.019-54.177-54.897 0-30.959 24.838-54.897 54.177-54.897s54.178 23.938 54.178 54.897m16.92 0c0-40.318-31.859-70.737-71.098-70.737-39.238 0-71.096 30.419-71.096 70.737 0 38.878 32.218 70.737 71.096 70.737 38.879 0 71.098-31.859 71.098-70.737" fill="#1e1f1d"/></g><g transform="translate(1221.3 504.5)"><path d="m0 0 101.88-106.74v100.26h16.919v-141.29l-101.88 106.74v-101.16h-16.919z" fill="#1e1f1d"/></g><g transform="translate(1443.4 466.7)"><path d="m0 0-24.119-54.897h48.238zm-31.139-70.377-15.479-34.019h-18.18l64.798 141.47 64.798-141.47h-18.18l-15.479 34.019z" fill="#1e1f1d"/></g><g transform="translate(1608.6 472.28)"><path d="m0 0c-5.04 8.459-11.52 12.779-21.779 12.779-10.799 0-22.679-7.379-22.679-19.259 0-10.62 10.439-16.2 18.899-19.439l9.72-3.78c19.259-7.56 33.658-18.179 33.658-40.858 0-24.66-19.079-42.298-43.378-42.298-21.959 0-39.058 16.199-41.938 37.978l17.1 3.6c-0.181-14.94 11.699-25.739 26.278-25.739 14.58 0 25.019 12.24 25.019 26.459 0 14.579-11.7 20.879-23.399 25.739l-9.359 3.96c-15.48 6.659-29.519 15.479-29.519 34.378 0 21.959 19.439 35.099 39.958 35.099 15.119 0 27.539-7.38 34.919-20.519z" fill="#1e1f1d"/></g><g transform="translate(771.63 288.5)"><path d="m0 0 101.88-106.74v100.26h16.919v-141.3l-101.88 106.74v-101.16h-16.919z" fill="#1e1f1d"/></g><g transform="translate(957.92 282.02)"><path d="m0 0v-80.097c0-22.139 6.659-42.659 32.759-42.659 26.098 0 32.759 20.52 32.759 42.659v80.097h16.919v-85.856c0-29.879-18.54-52.739-49.678-52.739-31.139 0-49.679 22.86-49.679 52.739v85.856z" fill="#1e1f1d"/></g><g transform="translate(1107.1 282.02)"><path d="m0 0v-80.097c0-22.139 6.659-42.659 32.759-42.659 26.098 0 32.759 20.52 32.759 42.659v80.097h16.919v-85.856c0-29.879-18.54-52.739-49.678-52.739-31.139 0-49.679 22.86-49.679 52.739v85.856z" fill="#1e1f1d"/></g><g transform="translate(1278.3 146.31)"><path d="m0 0h-16.919v120.24h-32.219v15.48h81.357v-15.48h-32.219z" fill="#1e1f1d"/></g><path d="m1369 146.31h-16.919v135.72h16.919z" fill="#1e1f1d"/><g transform="translate(1421.6 288.5)"><path d="m0 0 101.88-106.74v100.26h16.919v-141.3l-101.88 106.74v-101.16h-16.919z" fill="#1e1f1d"/></g><g transform="translate(1593.3 282.02)"><path d="m0 0h72.897v-15.479h-55.977v-37.979h54.357v-15.48h-54.357v-51.297h55.977v-15.48h-72.897z" fill="#1e1f1d"/></g><g transform="translate(1714.3 288.5)"><path d="m0 0 101.88-106.74v100.26h16.919v-141.3l-101.88 106.74v-101.16h-16.919z" fill="#1e1f1d"/></g></g></g></svg>
